PathFileType	4	(X/Y/Z)	/Users/itak/Documents/Research/Walk-IL/dataset/trc/00204_00008.trc
DataRate	CameraRate	NumFrames	NumMarkers	Units	OrigDataRate	OrigDataStartFrame	OrigNumFrames
100.000000	100.000000	4	53	mm	100.000000	249	499
Frame#	Time	RPSI			LPSI			L3			STRN			T10			C7			CLAV			RBAK			LBAK			LSHO			LUPA			LAEL			LAOL			LWTS			LWPS			LFRA			LIFD			LHPS			LHTS			RSHO			RUPA			RAEL			RAOL			RWTS			RWPS			RFRA			RIFD			RHTS			RHPS			RBHD			LFHD			RFHD			LBHD			LHIP			RHIP			RASI			LASI			LKNE			LTHI			LANK			LTIP			LTOE			LMT1			LMT5			LHEE			RKNE			RTHI			RANK			RTIP			RTOE			RMT1			RMT5			RHEE			
		X1	Y1	Z1	X2	Y2	Z2	X3	Y3	Z3	X4	Y4	Z4	X5	Y5	Z5	X6	Y6	Z6	X7	Y7	Z7	X8	Y8	Z8	X9	Y9	Z9	X10	Y10	Z10	X11	Y11	Z11	X12	Y12	Z12	X13	Y13	Z13	X14	Y14	Z14	X15	Y15	Z15	X16	Y16	Z16	X17	Y17	Z17	X18	Y18	Z18	X19	Y19	Z19	X20	Y20	Z20	X21	Y21	Z21	X22	Y22	Z22	X23	Y23	Z23	X24	Y24	Z24	X25	Y25	Z25	X26	Y26	Z26	X27	Y27	Z27	X28	Y28	Z28	X29	Y29	Z29	X30	Y30	Z30	X31	Y31	Z31	X32	Y32	Z32	X33	Y33	Z33	X34	Y34	Z34	X35	Y35	Z35	X36	Y36	Z36	X37	Y37	Z37	X38	Y38	Z38	X39	Y39	Z39	X40	Y40	Z40	X41	Y41	Z41	X42	Y42	Z42	X43	Y43	Z43	X44	Y44	Z44	X45	Y45	Z45	X46	Y46	Z46	X47	Y47	Z47	X48	Y48	Z48	X49	Y49	Z49	X50	Y50	Z50	X51	Y51	Z51	X52	Y52	Z52	X53	Y53	Z53	

250	2.49	-383.8950500488281	1050.2705078125	-414.556396484375	-310.5915832519531	1058.1044921875	-514.095947265625	-350.2267456054688	1091.59521484375	-460.4993286132812	-133.6790008544922	1293.761474609375	-311.8212890625	-371.0914916992188	1251.9609375	-485.9841003417969	-298.6283874511719	1517.632080078125	-460.7201843261719	-144.1749267578125	1408.338623046875	-338.0797119140625	-425.0291748046875	1349.785766601562	-408.6089172363281	-245.8783721923828	1489.978393554688	-545.2246704101562	-139.226318359375	1472.4267578125	-564.2927856445312	-129.1708679199219	1344.05908203125	-647.3778686523438	-127.5000228881836	1126.162841796875	-666.2184448242188	-212.0337219238281	1117.267578125	-638.3020629882812	-85.884521484375	880.3919677734375	-592.76513671875	-125.196891784668	872.357177734375	-677.0984497070312	-119.0705184936523	1015.394653320312	-677.4547119140625	-117.6874237060547	697.2811279296875	-585.0558471679688	-119.1921005249023	800.6495361328125	-669.185791015625	-72.52893829345703	801.7974853515625	-611.8391723632812	-352.1156616210938	1502.981811523438	-275.8071594238281	-411.9568176269531	1441.23193359375	-229.7017059326172	-468.0559997558594	1155.387329101562	-184.2935638427734	-413.6032409667969	1142.725463867188	-265.9303894042969	-345.7625427246094	930.5499267578125	-109.5764465332031	-432.2286682128906	914.0479125976562	-111.3483123779297	-459.0512084960938	1085.689453125	-151.5617218017578	-320.0934753417969	743.2119140625	-115.0074005126953	-328.5454406738281	839.1100463867188	-82.26347351074219	-407.45751953125	832.5894775390625	-91.86141204833984	-280.2282104492188	1683.12158203125	-372.7000427246094	-67.51365661621094	1708.981323242188	-347.3980712890625	-157.2245178222656	1711.19140625	-254.3587493896484	-190.2860717773438	1688.733520507812	-477.1848754882812	-155.3858032226562	1006.539245605469	-545.9666748046875	-342.408447265625	996.1544189453125	-222.51171875	-244.4201812744141	1032.320922851562	-215.9665374755859	-90.60338592529297	1037.1484375	-423.7255554199219	-98.59963989257812	505.4516906738281	-481.2332458496094	-99.75609588623047	650.010009765625	-510.5238647460938	-162.9923248291016	33.80436706542969	-540.3602294921875	-119.3032531738281	276.364501953125	-517.1253662109375	-4.634647369384766	42.73043823242188	-386.616943359375	-72.99568939208984	45.11981582641602	-377.4292907714844	-53.35939025878906	27.7747974395752	-505.8773193359375	-245.2071075439453	38.81805038452148	-516.964599609375	-233.5140686035156	501.0467529296875	-177.669677734375	-274.371826171875	773.8411865234375	-172.9642791748047	-491.8602905273438	164.3184051513672	-434.7095336914062	-258.2567443847656	386.0175170898438	-221.7723541259766	-349.1863098144531	53.96538162231445	-320.4010620117188	-347.0081176757812	69.74201965332031	-385.1924133300781	-463.2845764160156	95.93577575683594	-346.1030578613281	-466.7350769042969	194.4299621582031	-509.5992126464844	
251	2.5	-376.1109313964844	1050.5673828125	-412.2586364746094	-301.7782897949219	1058.39404296875	-511.0084533691406	-341.7653198242188	1092.022338867188	-457.9364318847656	-126.5150451660156	1293.819702148438	-306.4065551757812	-361.8206481933594	1252.669189453125	-483.7065734863281	-289.2500915527344	1518.157592773438	-456.8815002441406	-136.5439300537109	1408.518310546875	-332.4342346191406	-416.7597961425781	1350.422241210938	-406.859375	-235.5739898681641	1490.666625976562	-540.8024291992188	-128.5929412841797	1473.206909179688	-558.3731079101562	-116.9249038696289	1344.99560546875	-641.43505859375	-113.5570678710938	1127.135986328125	-660.5469970703125	-198.7202758789062	1117.77587890625	-634.2982788085938	-72.18898773193359	881.5066528320312	-586.2844848632812	-109.7740783691406	873.3239135742188	-671.3893432617188	-104.361213684082	1016.399353027344	-671.617431640625	-103.3905258178711	698.1992797851562	-579.3002319335938	-103.6177978515625	801.6395263671875	-663.4234008789062	-58.15499496459961	802.9636840820312	-605.160400390625	-345.1748352050781	1503.216552734375	-272.7901916503906	-405.7153015136719	1441.48095703125	-227.7291259765625	-462.9558410644531	1155.624633789062	-183.3419342041016	-406.8668823242188	1142.942993164062	-263.869384765625	-340.4033203125	932.0680541992188	-105.2206497192383	-426.5668029785156	914.4891357421875	-109.3534469604492	-454.1551513671875	1085.899047851562	-150.2381591796875	-312.1328125	745.1660766601562	-109.0475997924805	-322.8052062988281	841.0734252929688	-76.94793701171875	-401.2975769042969	833.425048828125	-88.8934326171875	-271.5341186523438	1683.540405273438	-367.9622192382812	-58.95516204833984	1708.745971679688	-340.5667724609375	-149.6117401123047	1711.1220703125	-248.3978118896484	-180.6299896240234	1688.893920898438	-471.5723571777344	-146.6051483154297	1006.384155273438	-541.5759887695312	-336.4087524414062	997.1063842773438	-219.6992645263672	-238.268798828125	1032.659301757812	-212.429443359375	-82.45187377929688	1036.952392578125	-418.994140625	-95.66328430175781	504.949462890625	-479.6431579589844	-94.99495697021484	649.6722412109375	-507.7506103515625	-163.01513671875	33.98725891113281	-540.1923217773438	-117.8389205932617	276.2316284179688	-516.2764892578125	-4.538452625274658	42.53937149047852	-386.3937683105469	-72.90528106689453	45.00564575195312	-377.3157653808594	-53.33298492431641	27.75566673278809	-505.8917541503906	-245.2958221435547	39.15058135986328	-516.7887573242188	-220.1954345703125	504.1127624511719	-167.8612518310547	-266.6499633789062	776.3322143554688	-167.0430297851562	-464.9493408203125	156.6790161132812	-424.7356567382812	-241.4550018310547	387.8229370117188	-211.2508392333984	-320.3711853027344	54.40451431274414	-305.2215270996094	-317.6664428710938	68.79269409179688	-370.390380859375	-435.2533264160156	92.05675506591797	-333.7087707519531	-439.6181640625	185.5452575683594	-500.1530151367188	
252	2.51	-368.3910522460938	1050.755859375	-409.8081970214844	-293.0925598144531	1058.597045898438	-507.7880554199219	-333.4318237304688	1092.347900390625	-455.2413940429688	-119.4644012451172	1293.794799804688	-300.9461975097656	-352.7147521972656	1253.240356445312	-481.3160400390625	-280.0700988769531	1518.562377929688	-452.9598693847656	-129.0502624511719	1408.60205078125	-326.7415771484375	-408.6568603515625	1350.929443359375	-404.9991149902344	-225.4565582275391	1491.234252929688	-536.2820434570312	-118.1721496582031	1473.868896484375	-552.3488159179688	-104.898307800293	1345.81201171875	-635.3714599609375	-99.68408966064453	1128.022338867188	-654.671630859375	-185.4562072753906	1118.126586914062	-630.0376586914062	-58.33207321166992	882.5576782226562	-579.6467895507812	-94.25249481201172	874.2176513671875	-665.4610595703125	-89.65579986572266	1017.328796386719	-665.5701293945312	-88.78205871582031	699.0366821289062	-573.35693359375	-87.89093017578125	802.5715942382812	-657.4583740234375	-43.59940338134766	804.0816040039062	-598.336669921875	-338.3401794433594	1503.329956054688	-269.6857604980469	-399.5379333496094	1441.594360351562	-225.6466827392578	-457.772216796875	1155.69091796875	-182.3852386474609	-400.0585021972656	1143.0234375	-261.7803039550781	-334.9918823242188	933.4099731445312	-100.9612655639648	-420.8150024414062	914.7710571289062	-107.3884658813477	-449.1618957519531	1085.939453125	-148.9261322021484	-304.2480163574219	746.9560546875	-103.2599334716797	-317.0306396484375	842.8404541015625	-71.79969787597656	-395.0670166015625	834.08740234375	-85.97004699707031	-262.997802734375	1683.8583984375	-363.1030883789062	-50.57954788208008	1708.375854492188	-333.6056823730469	-142.1474151611328	1710.88720703125	-242.3023223876953	-171.2088928222656	1688.975341796875	-465.7860717773438	-137.9806213378906	1006.161865234375	-537.10888671875	-330.3736572265625	997.9008178710938	-216.784423828125	-232.1506652832031	1032.84814453125	-208.8428192138672	-74.39430999755859	1036.6376953125	-414.2030029296875	-92.86177825927734	504.47216796875	-478.1427917480469	-90.34691619873047	649.3289184570312	-505.0054931640625	-163.0189514160156	34.16353607177734	-540.03369140625	-116.4687118530273	276.1330261230469	-515.5	-4.481915950775146	42.36528778076172	-386.2198791503906	-72.82216644287109	44.9190788269043	-377.22705078125	-53.32228088378906	27.72687339782715	-505.9227600097656	-245.3605041503906	39.48252487182617	-516.6246948242188	-207.2882690429688	507.2079467773438	-158.161376953125	-259.0984191894531	778.748291015625	-161.1372680664062	-437.6412048339844	148.5205383300781	-413.9147338867188	-224.9987640380859	389.6493835449219	-200.5970916748047	-291.5480346679688	55.03271102905273	-289.0108947753906	-288.2754821777344	67.79489135742188	-354.5490417480469	-407.1212463378906	87.96053314208984	-320.397216796875	-411.8468322753906	175.9627685546875	-489.8454895019531	
253	2.52	-360.7254943847656	1050.853637695312	-407.2081604003906	-284.5914306640625	1058.72607421875	-504.4596252441406	-325.2039794921875	1092.570434570312	-452.4099731445312	-112.5168380737305	1293.679931640625	-295.4292602539062	-343.7958984375	1253.678833007812	-478.8080749511719	-271.0814514160156	1518.842895507812	-448.94775390625	-121.6862106323242	1408.584594726562	-320.9968566894531	-400.6855163574219	1351.29931640625	-403.0133666992188	-215.5161285400391	1491.6767578125	-531.6549072265625	-107.9513854980469	1474.401000976562	-546.214111328125	-93.072265625	1346.509399414062	-629.1897583007812	-85.90254211425781	1128.820434570312	-648.609619140625	-172.2621917724609	1118.32861328125	-625.5354614257812	-44.34351348876953	883.5491943359375	-572.8446655273438	-78.66501617431641	875.0338134765625	-659.312255859375	-74.98268127441406	1018.179931640625	-659.3271484375	-73.83811187744141	699.8072509765625	-567.1922607421875	-72.02674102783203	803.4469604492188	-651.2787475585938	-28.86797714233398	805.162841796875	-591.3579711914062	-331.6050109863281	1503.31591796875	-266.4859008789062	-393.4200439453125	1441.566162109375	-223.4480590820312	-452.4963073730469	1155.579711914062	-181.3882446289062	-393.2005920410156	1142.963256835938	-259.6414794921875	-329.5135803222656	934.5501098632812	-96.82148742675781	-414.9736633300781	914.8917236328125	-105.4146118164062	-444.065185546875	1085.807861328125	-147.5958251953125	-296.4651184082031	748.5466918945312	-97.67521667480469	-311.1872863769531	844.38720703125	-66.84011077880859	-388.7715759277344	834.5714721679688	-83.06230926513672	-254.6145324707031	1684.067504882812	-358.1278076171875	-42.38681411743164	1707.876953125	-326.5275573730469	-134.8325500488281	1710.494262695312	-236.087158203125	-161.9987945556641	1688.983032226562	-459.8493957519531	-129.4916534423828	1005.874328613281	-532.5597534179688	-324.3019104003906	998.5423583984375	-213.7697601318359	-226.0510711669922	1032.907348632812	-205.1963500976562	-66.43541717529297	1036.215087890625	-409.3349609375	-90.18105316162109	504.0224914550781	-476.7141418457031	-85.79195404052734	648.9812622070312	-502.2693481445312	-163.0050506591797	34.33654403686523	-539.8807983398438	-115.1930999755859	276.0675964355469	-514.7916259765625	-4.465705394744873	42.18632125854492	-386.0887756347656	-72.74806976318359	44.85425567626953	-377.1627502441406	-53.33071517944336	27.68364143371582	-505.9740600585938	-245.3824920654297	39.80694961547852	-516.4656982421875	-194.8013610839844	510.3021545410156	-148.5953674316406	-251.7120819091797	781.072265625	-155.2564697265625	-410.0138244628906	139.9825134277344	-402.1890563964844	-208.9274749755859	391.4931030273438	-189.8210296630859	-262.9129638671875	55.85998153686523	-271.7789001464844	-258.9651489257812	66.80617523193359	-337.6557922363281	-379.0057067871094	83.7447509765625	-306.1582641601562	-383.4789733886719	165.8412170410156	-478.5792236328125	
